<mxfile host="app.diagrams.net" agent="Mozilla/5.0 (Windows NT 10.0; Win64; x64) AppleWebKit/537.36 (KHTML, like Gecko) Chrome/138.0.0.0 YaBrowser/25.8.0.0 Safari/537.36" version="27.0.8">
  <diagram name="Страница — 1" id="3HyEdIA4Mo4pyknHhLdY">
    <mxGraphModel dx="1426" dy="796" grid="1" gridSize="10" guides="1" tooltips="1" connect="1" arrows="1" fold="1" page="1" pageScale="1" pageWidth="827" pageHeight="1169" math="0" shadow="0">
      <root>
        <mxCell id="0" />
        <mxCell id="1" parent="0" />
        <mxCell id="yMjBoGMXAT3tgbrOjR-U-3" style="edgeStyle=orthogonalEdgeStyle;rounded=0;orthogonalLoop=1;jettySize=auto;html=1;exitX=0.5;exitY=1;exitDx=0;exitDy=0;entryX=0.5;entryY=0;entryDx=0;entryDy=0;" edge="1" parent="1" source="yMjBoGMXAT3tgbrOjR-U-1" target="yMjBoGMXAT3tgbrOjR-U-2">
          <mxGeometry relative="1" as="geometry" />
        </mxCell>
        <mxCell id="yMjBoGMXAT3tgbrOjR-U-1" value="Пользователь" style="ellipse;whiteSpace=wrap;html=1;aspect=fixed;" vertex="1" parent="1">
          <mxGeometry x="357" y="50" width="114" height="114" as="geometry" />
        </mxCell>
        <mxCell id="yMjBoGMXAT3tgbrOjR-U-2" value="Заходит на веб-сайт&lt;div&gt;приложения&lt;/div&gt;" style="rounded=0;whiteSpace=wrap;html=1;" vertex="1" parent="1">
          <mxGeometry x="354" y="230" width="120" height="60" as="geometry" />
        </mxCell>
        <mxCell id="yMjBoGMXAT3tgbrOjR-U-7" style="edgeStyle=orthogonalEdgeStyle;rounded=0;orthogonalLoop=1;jettySize=auto;html=1;exitX=0.5;exitY=1;exitDx=0;exitDy=0;entryX=0.5;entryY=0;entryDx=0;entryDy=0;" edge="1" parent="1" source="yMjBoGMXAT3tgbrOjR-U-4" target="yMjBoGMXAT3tgbrOjR-U-6">
          <mxGeometry relative="1" as="geometry" />
        </mxCell>
        <mxCell id="yMjBoGMXAT3tgbrOjR-U-4" value="Выбирает создание reels" style="rounded=0;whiteSpace=wrap;html=1;" vertex="1" parent="1">
          <mxGeometry x="354" y="350" width="120" height="60" as="geometry" />
        </mxCell>
        <mxCell id="yMjBoGMXAT3tgbrOjR-U-5" style="edgeStyle=orthogonalEdgeStyle;rounded=0;orthogonalLoop=1;jettySize=auto;html=1;exitX=0.5;exitY=1;exitDx=0;exitDy=0;entryX=0.5;entryY=0;entryDx=0;entryDy=0;" edge="1" parent="1" source="yMjBoGMXAT3tgbrOjR-U-2" target="yMjBoGMXAT3tgbrOjR-U-4">
          <mxGeometry relative="1" as="geometry" />
        </mxCell>
        <mxCell id="yMjBoGMXAT3tgbrOjR-U-9" style="edgeStyle=orthogonalEdgeStyle;rounded=0;orthogonalLoop=1;jettySize=auto;html=1;exitX=0.5;exitY=1;exitDx=0;exitDy=0;entryX=0.5;entryY=0;entryDx=0;entryDy=0;" edge="1" parent="1" source="yMjBoGMXAT3tgbrOjR-U-6" target="yMjBoGMXAT3tgbrOjR-U-8">
          <mxGeometry relative="1" as="geometry" />
        </mxCell>
        <mxCell id="yMjBoGMXAT3tgbrOjR-U-6" value="Выводится уведомление об авторизации и пользователь нажимает &quot;Анализировать&quot;" style="rounded=0;whiteSpace=wrap;html=1;" vertex="1" parent="1">
          <mxGeometry x="342" y="450" width="144" height="90" as="geometry" />
        </mxCell>
        <mxCell id="yMjBoGMXAT3tgbrOjR-U-12" style="edgeStyle=orthogonalEdgeStyle;rounded=0;orthogonalLoop=1;jettySize=auto;html=1;exitX=0.5;exitY=1;exitDx=0;exitDy=0;entryX=0.5;entryY=0;entryDx=0;entryDy=0;" edge="1" parent="1" source="yMjBoGMXAT3tgbrOjR-U-8" target="yMjBoGMXAT3tgbrOjR-U-10">
          <mxGeometry relative="1" as="geometry" />
        </mxCell>
        <mxCell id="yMjBoGMXAT3tgbrOjR-U-8" value="Получает уведомление об успешной генерации" style="rounded=0;whiteSpace=wrap;html=1;" vertex="1" parent="1">
          <mxGeometry x="354" y="600" width="120" height="60" as="geometry" />
        </mxCell>
        <mxCell id="yMjBoGMXAT3tgbrOjR-U-10" value="Выгружает видео" style="rounded=0;whiteSpace=wrap;html=1;" vertex="1" parent="1">
          <mxGeometry x="354" y="710" width="120" height="60" as="geometry" />
        </mxCell>
      </root>
    </mxGraphModel>
  </diagram>
</mxfile>
